<svg width="40" height="40" viewBox="0 0 40 40" fill="none" xmlns="http://www.w3.org/2000/svg">
<rect width="40" height="40" rx="20" fill="#F0F0F5"/>
<g clip-path="url(#clip0_3006_2744)">
<path d="M31.86 20.9998C31.8746 20.2042 31.5725 19.4353 31.0202 18.8624C30.4679 18.2895 29.7107 17.9594 28.915 17.9448C28.1194 17.9303 27.3505 18.2323 26.7776 18.7846C26.2046 19.3369 25.8746 20.0942 25.86 20.8898C25.86 20.8898 25.86 20.9598 25.86 20.9998V21.7498C25.86 21.9488 25.939 22.1395 26.0797 22.2802C26.2203 22.4208 26.4111 22.4998 26.61 22.4998C26.8089 22.4998 26.9997 22.4208 27.1403 22.2802C27.281 22.1395 27.36 21.9488 27.36 21.7498V20.9998C27.36 20.602 27.518 20.2205 27.7993 19.9392C28.0806 19.6579 28.4622 19.4998 28.86 19.4998C29.2578 19.4998 29.6394 19.6579 29.9207 19.9392C30.202 20.2205 30.36 20.602 30.36 20.9998V30.7398C30.36 30.8941 30.4082 31.0445 30.4978 31.17C30.5875 31.2955 30.7141 31.3898 30.86 31.4398C30.9396 31.4717 31.0243 31.4886 31.11 31.4898C31.3089 31.4898 31.4997 31.4108 31.6403 31.2702C31.781 31.1295 31.86 30.9388 31.86 30.7398V20.9998Z" fill="#33333D"/>
<path d="M18.7 26.7295C16.8837 26.5652 15.1838 25.7648 13.9 24.4695C13.8681 24.4404 13.8295 24.4196 13.7876 24.4091C13.7457 24.3987 13.7018 24.3988 13.66 24.4095C11.9496 24.8534 10.3584 25.6695 9 26.7995C8.72138 27.0521 8.49971 27.361 8.3497 27.7059C8.1997 28.0507 8.12481 28.4235 8.13 28.7995V31.4995C8.13 31.6321 8.18268 31.7593 8.27644 31.8531C8.37021 31.9468 8.49739 31.9995 8.63 31.9995H17.25L18.15 28.8695C18.181 28.7608 18.2466 28.6653 18.3368 28.5972C18.4271 28.5291 18.537 28.4923 18.65 28.4923C18.763 28.4923 18.8729 28.5291 18.9632 28.5972C19.0534 28.6653 19.119 28.7608 19.15 28.8695L20 31.9995H28.61C28.7426 31.9995 28.8698 31.9468 28.9636 31.8531C29.0573 31.7593 29.11 31.6321 29.11 31.4995V28.8095C29.1152 28.4335 29.0403 28.0607 28.8903 27.7159C28.7403 27.371 28.5186 27.0621 28.24 26.8095C26.9226 25.7039 25.3802 24.8986 23.72 24.4495C23.6782 24.4388 23.6343 24.4387 23.5924 24.4491C23.5505 24.4596 23.5119 24.4804 23.48 24.5095C22.1989 25.7909 20.5055 26.5773 18.7 26.7295Z" fill="#33333D"/>
<path d="M19.4 20.1898L19.18 20.2898C18.8202 20.3901 18.4398 20.3901 18.08 20.2898C18.0033 20.2645 17.9295 20.231 17.86 20.1898C17.6867 20.098 17.4842 20.0777 17.2961 20.1333C17.108 20.189 16.9492 20.3161 16.8537 20.4875C16.7582 20.6588 16.7336 20.8608 16.7853 21.05C16.8369 21.2393 16.9607 21.4008 17.13 21.4998C17.2886 21.5878 17.4562 21.6582 17.63 21.7098C17.9537 21.8106 18.291 21.8612 18.63 21.8598C18.9682 21.8596 19.3047 21.8125 19.63 21.7198C19.8025 21.6605 19.9697 21.587 20.13 21.4998C20.2993 21.4008 20.4231 21.2393 20.4747 21.05C20.5264 20.8608 20.5018 20.6588 20.4063 20.4875C20.3108 20.3161 20.152 20.189 19.9639 20.1333C19.7758 20.0777 19.5733 20.098 19.4 20.1898Z" fill="#33333D"/>
<path d="M17.74 17.9093C17.8804 17.7686 17.9593 17.578 17.9593 17.3793C17.9593 17.1805 17.8804 16.9899 17.74 16.8493C17.3777 16.5394 16.9167 16.3691 16.44 16.3691C15.9633 16.3691 15.5023 16.5394 15.14 16.8493C14.9995 16.9899 14.9207 17.1805 14.9207 17.3793C14.9207 17.578 14.9995 17.7686 15.14 17.9093C15.2856 18.0557 15.4834 18.1385 15.69 18.1393C15.8797 18.1424 16.063 18.0705 16.2 17.9393C16.286 17.8929 16.3822 17.8686 16.48 17.8686C16.5777 17.8686 16.674 17.8929 16.76 17.9393C16.8998 18.0527 17.0757 18.1121 17.2556 18.1066C17.4355 18.1011 17.6074 18.031 17.74 17.9093Z" fill="#33333D"/>
<path d="M19.52 16.8495C19.4097 16.9488 19.3317 17.0789 19.2963 17.223C19.2609 17.3672 19.2696 17.5186 19.3214 17.6577C19.3731 17.7968 19.4655 17.9171 19.5865 18.0031C19.7075 18.089 19.8516 18.1365 20 18.1395C20.1895 18.1416 20.3724 18.0699 20.51 17.9395C20.5942 17.8931 20.6888 17.8688 20.785 17.8688C20.8812 17.8688 20.9758 17.8931 21.06 17.9395C21.127 18.0255 21.2119 18.0959 21.3089 18.1457C21.4059 18.1955 21.5125 18.2236 21.6215 18.228C21.7304 18.2324 21.839 18.213 21.9396 18.1711C22.0403 18.1293 22.1306 18.066 22.2043 17.9856C22.278 17.9053 22.3333 17.8099 22.3664 17.706C22.3994 17.6021 22.4094 17.4922 22.3957 17.3841C22.3819 17.2759 22.3448 17.1721 22.2868 17.0798C22.2288 16.9874 22.1514 16.9089 22.06 16.8495C21.7021 16.5553 21.2532 16.3945 20.79 16.3945C20.3267 16.3945 19.8779 16.5553 19.52 16.8495Z" fill="#33333D"/>
<path d="M26.62 11.8996C26.62 11.0196 26.25 10.6396 24.34 10.1596C24.2896 10.1465 24.2444 10.1186 24.21 10.0796C22.33 7.83957 19 7.99957 18.7 7.99957C16.21 7.99957 14.36 8.70957 13.18 10.0896L11.77 10.4396C11.4475 10.5252 11.1622 10.7145 10.9579 10.9784C10.7537 11.2422 10.642 11.5659 10.64 11.8996V15.0496C10.6413 15.3432 10.7293 15.6298 10.893 15.8736C11.0567 16.1173 11.2887 16.3073 11.56 16.4196C11.5927 16.4303 11.6223 16.4486 11.6466 16.4729C11.671 16.4972 11.6892 16.5269 11.7 16.5596C11.7146 16.5926 11.7221 16.6284 11.7221 16.6646C11.7221 16.7007 11.7146 16.7365 11.7 16.7696C11.5238 17.112 11.441 17.4949 11.46 17.8796C11.4524 18.3768 11.5819 18.8666 11.8341 19.2952C12.0863 19.7238 12.4516 20.0747 12.89 20.3096C12.9216 20.3308 12.9479 20.3589 12.967 20.3918C12.986 20.4248 12.9973 20.4616 13 20.4996C13.51 23.4996 17 25.4996 18.67 25.4996C20.34 25.4996 23.84 23.5596 24.35 20.4996C24.3584 20.4596 24.3765 20.4223 24.4026 20.3909C24.4288 20.3595 24.4622 20.335 24.5 20.3196C24.953 20.0936 25.3336 19.7452 25.5987 19.3139C25.8638 18.8827 26.0028 18.3858 26 17.8796C26.0184 17.4766 25.9286 17.0761 25.74 16.7196C25.7251 16.6901 25.7173 16.6576 25.7173 16.6246C25.7173 16.5916 25.7251 16.559 25.74 16.5296C25.748 16.4974 25.7629 16.4673 25.7836 16.4414C25.8043 16.4156 25.8304 16.3944 25.86 16.3796C26.1036 16.252 26.3083 16.0612 26.4526 15.8271C26.5969 15.5931 26.6754 15.3245 26.68 15.0496L26.62 11.8996ZM23 15.2396C23.0687 15.4458 23.1811 15.6347 23.3295 15.7935C23.4779 15.9523 23.6589 16.0771 23.86 16.1596C23.902 16.175 23.9377 16.204 23.9613 16.2421C23.9849 16.2802 23.995 16.3251 23.99 16.3696V16.6196C23.9626 16.7768 23.9867 16.9386 24.0588 17.081C24.1309 17.2234 24.2471 17.3386 24.39 17.4096C24.39 17.4096 24.5 17.5596 24.5 17.8496C24.5071 18.0639 24.4594 18.2765 24.3614 18.4672C24.2634 18.658 24.1184 18.8206 23.94 18.9396C23.6775 19.0575 23.4486 19.2391 23.274 19.4678C23.0994 19.6966 22.9846 19.9653 22.94 20.2496C22.53 22.4896 19.74 23.9996 18.7 23.9996C17.66 23.9996 14.88 22.5096 14.5 20.2696C14.4554 19.9853 14.3406 19.7166 14.166 19.4878C13.9914 19.2591 13.7625 19.0775 13.5 18.9596C13.3216 18.8406 13.1766 18.678 13.0786 18.4872C12.9806 18.2965 12.9329 18.0839 12.94 17.8696C12.94 17.5796 13.02 17.4396 13.05 17.4296C13.1929 17.3586 13.3091 17.2434 13.3812 17.101C13.4533 16.9586 13.4774 16.7968 13.45 16.6396C13.45 16.5396 13.45 16.4496 13.45 16.3596C13.4454 16.3098 13.4551 16.2598 13.4782 16.2154C13.5013 16.1711 13.5366 16.1343 13.58 16.1096C13.9279 15.9168 14.189 15.5984 14.31 15.2196L15 11.9996C15.0671 11.8065 15.092 11.6012 15.073 11.3976C15.054 11.1941 14.9916 10.997 14.89 10.8196C14.8747 10.7908 14.8654 10.7593 14.8627 10.7269C14.86 10.6945 14.8639 10.6618 14.8742 10.631C14.8845 10.6001 14.901 10.5717 14.9226 10.5473C14.9442 10.523 14.9705 10.5034 15 10.4896C16.0996 9.77177 17.3986 9.42162 18.71 9.48957C19.9729 9.42382 21.2266 9.73725 22.31 10.3896C22.3634 10.4261 22.4006 10.482 22.4136 10.5454C22.4267 10.6089 22.4146 10.6749 22.38 10.7296C22.2576 10.9147 22.1788 11.1251 22.1493 11.3451C22.1199 11.565 22.1406 11.7888 22.21 11.9996L23 15.2396Z" fill="#33333D"/>
<path d="M17.63 10.7793C17.5033 10.7804 17.3791 10.8149 17.27 10.8793C17.1278 10.9611 17.0164 11.0872 16.9527 11.2384C16.8891 11.3895 16.8767 11.5574 16.9176 11.7162C16.9584 11.8751 17.0502 12.0161 17.1789 12.1178C17.3075 12.2195 17.466 12.2762 17.63 12.2793H19.63C19.8272 12.2767 20.0154 12.1965 20.1539 12.0561C20.2924 11.9158 20.37 11.7265 20.37 11.5293C20.3564 11.3366 20.2743 11.1551 20.1386 11.0175C20.0029 10.88 19.8225 10.7955 19.63 10.7793H17.63Z" fill="#33333D"/>
<path d="M16.88 13.9998C16.8787 14.0987 16.8971 14.1968 16.9343 14.2884C16.9716 14.38 17.0268 14.4632 17.0967 14.5332C17.1666 14.6031 17.2498 14.6583 17.3414 14.6955C17.433 14.7327 17.5311 14.7512 17.63 14.7498H19.63C19.8127 14.7286 19.9813 14.641 20.1036 14.5037C20.2259 14.3663 20.2935 14.1888 20.2935 14.0048C20.2935 13.8209 20.2259 13.6434 20.1036 13.506C19.9813 13.3686 19.8127 13.281 19.63 13.2598H17.63C17.532 13.2585 17.4347 13.2767 17.3437 13.3133C17.2528 13.3499 17.17 13.4042 17.1003 13.473C17.0305 13.5419 16.9751 13.6239 16.9373 13.7143C16.8995 13.8048 16.88 13.9018 16.88 13.9998Z" fill="#33333D"/>
</g>
<defs>
<clipPath id="clip0_3006_2744">
<rect width="24" height="24" fill="white" transform="translate(8 8)"/>
</clipPath>
</defs>
</svg>
