<svg width="40" height="40" viewBox="0 0 40 40" fill="none" xmlns="http://www.w3.org/2000/svg">
<rect width="40" height="40" rx="20" fill="#F0F0F5"/>
<path d="M15.4196 31.4C16.4811 31.6077 17.5802 31.4996 18.5809 31.089C19.5816 30.6785 20.4399 29.9834 21.0496 29.09C21.1598 28.9393 21.2256 28.7609 21.2396 28.5748C21.2536 28.3887 21.2152 28.2024 21.1289 28.037C21.0425 27.8715 20.9116 27.7336 20.7509 27.6387C20.5902 27.5438 20.4062 27.4957 20.2196 27.5C20.0626 27.4961 19.9072 27.5315 19.7674 27.6031C19.6277 27.6748 19.5081 27.7803 19.4196 27.91C19.1171 28.3731 18.7088 28.7578 18.2285 29.0321C17.7481 29.3065 17.2094 29.4627 16.6567 29.4879C16.1041 29.5131 15.5534 29.4066 15.05 29.1772C14.5467 28.9477 14.1051 28.6019 13.7616 28.1682C13.4182 27.7345 13.1828 27.2254 13.0748 26.6829C12.9668 26.1403 12.9893 25.5798 13.1405 25.0477C13.2917 24.5156 13.5672 24.027 13.9444 23.6223C14.3215 23.2176 14.7894 22.9083 15.3096 22.72C15.5185 22.6522 15.6992 22.5175 15.8239 22.3368C15.9486 22.156 16.0103 21.9393 15.9996 21.72C16.0014 21.5558 15.9627 21.3936 15.887 21.2479C15.8113 21.1022 15.7008 20.9773 15.5654 20.8844C15.43 20.7915 15.2738 20.7334 15.1106 20.7152C14.9474 20.6969 14.7822 20.7192 14.6296 20.78C13.4755 21.172 12.4843 21.9362 11.8117 22.9527C11.1391 23.9692 10.8232 25.1803 10.9136 26.3958C11.004 27.6113 11.4956 28.7623 12.3112 29.6681C13.1268 30.5739 14.2202 31.1831 15.4196 31.4Z" fill="#33333D"/>
<path d="M19 13.5C20.3807 13.5 21.5 12.3807 21.5 11C21.5 9.61929 20.3807 8.5 19 8.5C17.6193 8.5 16.5 9.61929 16.5 11C16.5 12.3807 17.6193 13.5 19 13.5Z" fill="#33333D"/>
<path d="M17.5 24.5C17.5 24.8978 17.658 25.2794 17.9393 25.5607C18.2206 25.842 18.6022 26 19 26H23.5C23.5837 26.0001 23.6659 26.0213 23.7393 26.0615C23.8127 26.1016 23.8748 26.1596 23.92 26.23L26.23 29.79C26.3626 30.0077 26.5492 30.1875 26.7717 30.3118C26.9942 30.4362 27.2451 30.501 27.5 30.5C27.7803 30.503 28.0551 30.423 28.29 30.27C28.4574 30.1668 28.6026 30.0315 28.7174 29.8718C28.8322 29.7122 28.9143 29.5314 28.9589 29.3399C29.0036 29.1485 29.0098 28.95 28.9774 28.7561C28.945 28.5622 28.8745 28.3766 28.77 28.21L26.47 24.65C26.1546 24.1397 25.7126 23.7196 25.187 23.4305C24.6613 23.1414 24.0699 22.9931 23.47 23H21C20.8674 23 20.7402 22.9473 20.6464 22.8536C20.5527 22.7598 20.5 22.6326 20.5 22.5V21.25C20.5 21.1837 20.5263 21.1201 20.5732 21.0732C20.6201 21.0263 20.6837 21 20.75 21H24C24.3978 21 24.7794 20.842 25.0607 20.5607C25.342 20.2794 25.5 19.8978 25.5 19.5C25.5 19.1022 25.342 18.7206 25.0607 18.4393C24.7794 18.158 24.3978 18 24 18H20.75C20.6837 18 20.6201 17.9737 20.5732 17.9268C20.5263 17.8799 20.5 17.8163 20.5 17.75V16.5C20.5 16.1022 20.342 15.7206 20.0607 15.4393C19.7794 15.158 19.3978 15 19 15C18.6022 15 18.2206 15.158 17.9393 15.4393C17.658 15.7206 17.5 16.1022 17.5 16.5V24.5Z" fill="#33333D"/>
</svg>
