<svg width="40" height="40" viewBox="0 0 40 40" fill="none" xmlns="http://www.w3.org/2000/svg">
<rect width="40" height="40" rx="20" fill="#F0F0F5"/>
<g clip-path="url(#clip0_2970_2652)">
<path d="M27.979 13.3293C28.2741 13.0345 28.4821 12.664 28.58 12.2586C28.6778 11.8531 28.6618 11.4285 28.5336 11.0316C28.4055 10.6347 28.1702 10.281 27.8536 10.0093C27.5371 9.73768 27.1518 9.55875 26.74 9.49228C26.3855 9.43229 26.0218 9.45868 25.6798 9.56923C25.3377 9.67977 25.0273 9.8712 24.775 10.1273C24.7391 10.1614 24.6915 10.1804 24.642 10.1804C24.5925 10.1804 24.5449 10.1614 24.509 10.1273C24.2989 9.91651 24.0493 9.74918 23.7745 9.63486C23.4998 9.52054 23.2052 9.46147 22.9075 9.461C22.3065 9.46006 21.7297 9.69793 21.304 10.1223C21.0932 10.3324 20.9259 10.582 20.8116 10.8567C20.6973 11.1315 20.6382 11.4261 20.6377 11.7237C20.6368 12.3248 20.8747 12.9016 21.299 13.3273L23.839 15.9783C23.943 16.0864 24.0678 16.1724 24.2059 16.2312C24.344 16.2899 24.4925 16.3202 24.6425 16.3202C24.7926 16.3202 24.9411 16.2899 25.0791 16.2312C25.2172 16.1724 25.342 16.0864 25.446 15.9783L27.979 13.3293Z" fill="#33333D"/>
<path d="M16.888 17.0317C16.8348 16.9928 16.7745 16.9649 16.7104 16.9495C16.6464 16.934 16.58 16.9314 16.5149 16.9417C16.4499 16.952 16.3875 16.9751 16.3314 17.0096C16.2753 17.0441 16.2266 17.0893 16.188 17.1427L14.7 19.2147C14.677 19.2471 14.6465 19.2735 14.6112 19.2917C14.5759 19.31 14.5367 19.3195 14.497 19.3195C14.4573 19.3195 14.4181 19.31 14.3828 19.2917C14.3475 19.2735 14.317 19.2471 14.294 19.2147L12.817 17.1427C12.7784 17.0893 12.7297 17.0441 12.6736 17.0096C12.6175 16.9751 12.5551 16.952 12.4901 16.9417C12.425 16.9314 12.3586 16.934 12.2946 16.9495C12.2305 16.9649 12.1702 16.9928 12.117 17.0317C11.3421 17.6042 10.7998 18.4373 10.59 19.3777L9.012 26.3907C8.99566 26.4638 8.99597 26.5396 9.0129 26.6126C9.02982 26.6856 9.06294 26.7539 9.10979 26.8123C9.15664 26.8708 9.21603 26.918 9.28357 26.9504C9.35111 26.9828 9.42507 26.9997 9.5 26.9997H11.1C11.2244 26.999 11.3445 27.0448 11.437 27.128C11.5294 27.2112 11.5876 27.3259 11.6 27.4497L12 31.5497C12.0124 31.6734 12.0706 31.7881 12.163 31.8713C12.2555 31.9545 12.3756 32.0003 12.5 31.9997H16.5C16.6244 32.0003 16.7445 31.9545 16.837 31.8713C16.9294 31.7881 16.9876 31.6734 17 31.5497L17.41 27.4497C17.4222 27.3276 17.4789 27.2143 17.5693 27.1313C17.6596 27.0484 17.7773 27.0015 17.9 26.9997H19.5C19.5749 26.9997 19.6489 26.9828 19.7164 26.9504C19.784 26.918 19.8434 26.8708 19.8902 26.8123C19.9371 26.7539 19.9702 26.6856 19.9871 26.6126C20.004 26.5396 20.0043 26.4638 19.988 26.3907L18.41 19.3777C18.2014 18.438 17.6611 17.6051 16.888 17.0317Z" fill="#33333D"/>
<path d="M11.021 16.638C11.2473 16.3638 11.4481 16.0696 11.621 15.759C11.6381 15.7278 11.6617 15.7007 11.6902 15.6794C11.7187 15.658 11.7514 15.6431 11.7862 15.6354C11.8209 15.6277 11.8569 15.6276 11.8917 15.6349C11.9265 15.6423 11.9593 15.6569 11.988 15.678C12.7166 16.2121 13.5966 16.5001 14.5 16.5001C15.4034 16.5001 16.2833 16.2121 17.012 15.678C17.0408 15.6573 17.0736 15.6428 17.1084 15.6357C17.1431 15.6285 17.179 15.6287 17.2136 15.6364C17.2483 15.644 17.2809 15.6589 17.3094 15.68C17.3379 15.7012 17.3616 15.7281 17.379 15.759C17.5519 16.0696 17.7527 16.3638 17.979 16.638C18.1482 16.8425 18.3917 16.9714 18.6559 16.9963C18.9202 17.0213 19.1835 16.9402 19.388 16.771C19.5925 16.6018 19.7214 16.3583 19.7463 16.094C19.7712 15.8298 19.6902 15.5665 19.521 15.362C19.0418 14.8116 18.7692 14.1115 18.75 13.382V12.25C18.75 11.1228 18.3022 10.0418 17.5052 9.2448C16.7082 8.44777 15.6272 8 14.5 8C13.3728 8 12.2918 8.44777 11.4948 9.2448C10.6978 10.0418 10.25 11.1228 10.25 12.25V13.382C10.2308 14.1115 9.95821 14.8116 9.47899 15.362C9.39521 15.4632 9.33219 15.58 9.29353 15.7056C9.25487 15.8312 9.24133 15.9632 9.25368 16.094C9.26603 16.2249 9.30403 16.352 9.36551 16.4682C9.42699 16.5843 9.51075 16.6872 9.61199 16.771C9.81648 16.9402 10.0798 17.0213 10.344 16.9963C10.6083 16.9714 10.8518 16.8425 11.021 16.638ZM12.473 12.26C12.7876 12.2096 13.0936 12.1154 13.382 11.98C13.7432 11.811 14.0582 11.5571 14.3 11.24C14.3234 11.2091 14.3536 11.1841 14.3883 11.1669C14.423 11.1496 14.4613 11.1407 14.5 11.1407C14.5387 11.1407 14.577 11.1496 14.6117 11.1669C14.6463 11.1841 14.6766 11.2091 14.7 11.24C14.9412 11.5569 15.2555 11.8108 15.616 11.98C15.9044 12.1154 16.2104 12.2096 16.525 12.26C16.5875 12.2722 16.6429 12.3077 16.6801 12.3594C16.7172 12.411 16.7333 12.4749 16.725 12.538C16.6559 13.0809 16.3912 13.58 15.9805 13.9417C15.5698 14.3035 15.0413 14.503 14.494 14.503C13.9467 14.503 13.4182 14.3035 13.0075 13.9417C12.5968 13.58 12.3321 13.0809 12.263 12.538C12.2552 12.4735 12.2727 12.4085 12.3119 12.3566C12.3511 12.3048 12.4088 12.2701 12.473 12.26Z" fill="#33333D"/>
<path d="M26.0703 19.4733C26.0703 19.8741 26.1891 20.2658 26.4117 20.5991C26.6343 20.9324 26.9507 21.1922 27.3209 21.3457C27.6911 21.4992 28.0985 21.5395 28.4917 21.4616C28.8848 21.3836 29.246 21.1908 29.5296 20.9077C29.8132 20.6245 30.0064 20.2636 30.085 19.8706C30.1635 19.4776 30.1238 19.0701 29.9709 18.6997C29.8179 18.3292 29.5586 18.0124 29.2256 17.7894C28.8927 17.5663 28.5011 17.4469 28.1003 17.4463C27.8339 17.4459 27.57 17.498 27.3237 17.5997C27.0774 17.7014 26.8536 17.8507 26.6651 18.0389C26.4765 18.2272 26.3269 18.4508 26.2249 18.6969C26.1228 18.943 26.0703 19.2068 26.0703 19.4733Z" fill="#33333D"/>
<path d="M28.1 22.0001C27.3309 22.0001 26.5932 22.3056 26.0494 22.8495C25.5055 23.3933 25.2 24.1309 25.2 24.9001V26.6591C25.2 26.7917 25.2527 26.9188 25.3464 27.0126C25.4402 27.1064 25.5674 27.1591 25.7 27.1591H26.2C26.3244 27.1584 26.4445 27.2042 26.537 27.2874C26.6294 27.3706 26.6876 27.4853 26.7 27.6091L27.094 31.5471C27.1064 31.6708 27.1646 31.7855 27.257 31.8687C27.3495 31.9519 27.4696 31.9977 27.594 31.9971H28.625C28.7494 31.9977 28.8695 31.9519 28.962 31.8687C29.0544 31.7855 29.1126 31.6708 29.125 31.5471L29.519 27.6091C29.5314 27.4853 29.5896 27.3706 29.682 27.2874C29.7745 27.2042 29.8946 27.1584 30.019 27.1591H30.519C30.6516 27.1591 30.7788 27.1064 30.8725 27.0126C30.9663 26.9188 31.019 26.7917 31.019 26.6591V24.9001C31.019 24.5176 30.9434 24.139 30.7964 23.7859C30.6495 23.4328 30.4342 23.1122 30.1629 22.8427C29.8916 22.5732 29.5697 22.36 29.2156 22.2153C28.8616 22.0707 28.4824 21.9976 28.1 22.0001Z" fill="#33333D"/>
</g>
<defs>
<clipPath id="clip0_2970_2652">
<rect width="24" height="24" fill="white" transform="translate(8 8)"/>
</clipPath>
</defs>
</svg>
