<svg width="40" height="40" viewBox="0 0 40 40" fill="none" xmlns="http://www.w3.org/2000/svg">
<rect width="40" height="40" rx="20" fill="#F0F0F5"/>
<g clip-path="url(#clip0_3006_937)">
<path d="M31.0868 17.6919C30.8675 17.3485 30.6101 17.031 30.3196 16.7454C29.0243 16.7454 28.3268 17.2734 28.2172 18.23C28.7316 18.7022 29.0644 19.3396 29.1579 20.0316C29.2514 20.7236 29.0996 21.4265 28.7291 22.0183C28.3585 22.6101 27.7924 23.0535 27.129 23.2715C26.4657 23.4896 25.7469 23.4685 25.0975 23.212C24.448 22.9554 23.9089 22.4796 23.5736 21.8671C23.2383 21.2546 23.1281 20.5441 23.2619 19.8588C23.3958 19.1734 23.7654 18.5566 24.3065 18.1153C24.8476 17.674 25.5262 17.4361 26.2244 17.4428C26.439 17.4403 26.6532 17.4637 26.8621 17.5126C26.9878 17.0708 27.2156 16.6647 27.5272 16.3272C27.8387 15.9897 28.2253 15.7302 28.6556 15.5696C28.3345 15.4266 28.001 15.3132 27.6592 15.2309L26.3141 13.0986C26.2098 12.9393 26.0485 12.8258 25.8634 12.7814C25.6782 12.7369 25.483 12.7649 25.3177 12.8595L23.9627 13.6964C23.8969 12.5763 23.5172 11.4973 22.867 10.5828C22.2168 9.66831 21.3224 8.95526 20.286 8.52519C19.1936 8.02521 17.9728 7.87745 16.7927 8.1024C15.6126 8.32735 14.5317 8.91386 13.6999 9.78064C11.5975 12.3115 12.006 15.1213 12.2751 17.6122C12.3349 18.0805 12.3847 18.5389 12.4245 18.9773H10.4318C10.2336 18.9773 10.0435 19.056 9.90334 19.1961C9.7632 19.3363 9.68447 19.5264 9.68447 19.7245V22.2853C9.15753 22.8067 8.73916 23.4274 8.45355 24.1115C8.16794 24.7956 8.02076 25.5295 8.02051 26.2708C8.02051 27.7903 8.62412 29.2475 9.69855 30.322C10.773 31.3964 12.2302 32 13.7497 32C15.2692 32 16.7264 31.3964 17.8009 30.322C18.8753 29.2475 19.4789 27.7903 19.4789 26.2708C19.4784 25.5387 19.3328 24.814 19.0505 24.1385C18.7812 24.0824 18.5031 24.0826 18.2339 24.1392C17.9647 24.1958 17.7101 24.3075 17.4861 24.4673C17.242 24.6367 17.0452 24.8657 16.9144 25.1325C16.7837 25.3993 16.7232 25.6951 16.7389 25.9918C16.7435 26.0415 16.7435 26.0916 16.7389 26.1413C16.7442 26.2442 16.7442 26.3472 16.7389 26.4501C16.7425 27.1352 16.5108 27.8008 16.0824 28.3354C15.6539 28.87 15.0549 29.2413 14.3854 29.387C13.716 29.5327 13.0168 29.444 12.405 29.1358C11.7931 28.8275 11.3057 28.3185 11.0243 27.6939C10.743 27.0692 10.6847 26.3668 10.8593 25.7044C11.0339 25.0419 11.4308 24.4595 11.9835 24.0547C12.5362 23.6499 13.2112 23.4472 13.8955 23.4806C14.5798 23.514 15.2318 23.7814 15.7425 24.2382C15.962 23.8686 16.2534 23.5467 16.5994 23.2916C17.045 22.9764 17.5558 22.7653 18.0939 22.6738C17.9943 22.5642 17.9146 22.4347 17.805 22.3251V19.7245C17.7949 19.5351 17.7131 19.3565 17.5761 19.2251C17.4392 19.0937 17.2574 19.0194 17.0677 19.0171H14.4173C14.4173 18.4791 14.3177 17.9311 14.2479 17.403C13.9988 15.0316 13.6899 12.9192 15.2343 11.046C15.7877 10.5028 16.4956 10.1441 17.2609 10.0192C18.0263 9.89438 18.8115 10.0094 19.5088 10.3486C20.3719 10.7252 21.0836 11.3806 21.5298 12.2099C21.9761 13.0391 22.131 13.9942 21.9699 14.922L19.8277 16.2671C19.7443 16.3169 19.6722 16.3832 19.6156 16.4621C19.559 16.5409 19.5193 16.6306 19.4989 16.7254C19.4756 16.8213 19.4715 16.9209 19.4869 17.0184C19.5023 17.1158 19.5368 17.2093 19.5885 17.2934L20.9735 19.4256C20.7746 20.3176 20.7982 21.2449 21.0423 22.1256C21.2864 23.0063 21.7435 23.8135 22.3732 24.4758C23.0029 25.1381 23.786 25.6353 24.6533 25.9236C25.5206 26.2118 26.4454 26.2821 27.3464 26.1284C28.2473 25.9748 29.0965 25.6017 29.8192 25.0423C30.5419 24.4829 31.1158 23.7542 31.4903 22.9205C31.8649 22.0869 32.0285 21.1739 31.9668 20.262C31.9051 19.3502 31.62 18.4675 31.1366 17.6919H31.0868Z" fill="#33333D"/>
</g>
<defs>
<clipPath id="clip0_3006_937">
<rect width="24" height="24" fill="white" transform="translate(8 8)"/>
</clipPath>
</defs>
</svg>
