<svg width="40" height="40" viewBox="0 0 40 40" fill="none" xmlns="http://www.w3.org/2000/svg">
<rect width="40" height="40" rx="20" fill="#F0F0F5"/>
<g clip-path="url(#clip0_3006_5169)">
<path d="M27.21 23.23H26.75H26.29C26.221 23.2229 26.1514 23.2309 26.0858 23.2533C26.0202 23.2758 25.9602 23.3122 25.91 23.36C25.8596 23.4076 25.8194 23.4649 25.7919 23.5285C25.7644 23.5921 25.7501 23.6607 25.75 23.73V24.73C25.75 26.1224 25.1969 27.4577 24.2123 28.4423C23.2278 29.4269 21.8924 29.98 20.5 29.98C19.1076 29.98 17.7723 29.4269 16.7877 28.4423C15.8031 27.4577 15.25 26.1224 15.25 24.73V21.91C16.6471 21.6739 17.9155 20.9509 18.8306 19.8692C19.7458 18.7875 20.2486 17.4169 20.25 16V13C20.2472 12.1349 19.9641 11.2941 19.443 10.6036C18.922 9.91305 18.1911 9.41005 17.36 9.17C17.3249 9.15869 17.2947 9.1356 17.2747 9.10461C17.2546 9.07363 17.2459 9.03667 17.25 9C17.25 8.73478 17.1446 8.48043 16.9571 8.29289C16.7696 8.10536 16.5152 8 16.25 8C15.9848 8 15.7304 8.10536 15.5429 8.29289C15.3554 8.48043 15.25 8.73478 15.25 9V11.5C15.25 11.7652 15.3554 12.0196 15.5429 12.2071C15.7304 12.3946 15.9848 12.5 16.25 12.5C16.5152 12.5 16.7696 12.3946 16.9571 12.2071C17.1446 12.0196 17.25 11.7652 17.25 11.5C17.2498 11.4769 17.2563 11.4542 17.2688 11.4347C17.2812 11.4151 17.299 11.3996 17.32 11.39C17.3385 11.3804 17.3591 11.3753 17.38 11.3753C17.4009 11.3753 17.4215 11.3804 17.44 11.39C17.6916 11.5763 17.896 11.819 18.0366 12.0986C18.1773 12.3782 18.2504 12.687 18.25 13V16C18.25 17.0609 17.8286 18.0783 17.0784 18.8284C16.3283 19.5786 15.3109 20 14.25 20C13.1891 20 12.1717 19.5786 11.4216 18.8284C10.6714 18.0783 10.25 17.0609 10.25 16V13C10.2512 12.6887 10.325 12.3819 10.4656 12.1041C10.6062 11.8264 10.8098 11.5852 11.06 11.4C11.0785 11.3904 11.0991 11.3853 11.12 11.3853C11.1409 11.3853 11.1615 11.3904 11.18 11.4C11.201 11.4096 11.2188 11.4251 11.2312 11.4447C11.2437 11.4642 11.2502 11.4869 11.25 11.51C11.25 11.7752 11.3554 12.0296 11.5429 12.2171C11.7304 12.4046 11.9848 12.51 12.25 12.51C12.5152 12.51 12.7696 12.4046 12.9571 12.2171C13.1446 12.0296 13.25 11.7752 13.25 11.51V9C13.25 8.73478 13.1446 8.48043 12.9571 8.29289C12.7696 8.10536 12.5152 8 12.25 8C11.9848 8 11.7304 8.10536 11.5429 8.29289C11.3554 8.48043 11.25 8.73478 11.25 9C11.2496 9.03335 11.2388 9.06573 11.219 9.09263C11.1993 9.11952 11.1717 9.13958 11.14 9.15C10.3056 9.391 9.57237 9.89701 9.051 10.5916C8.52962 11.2861 8.24847 12.1315 8.25001 13V16C8.25144 17.4169 8.75425 18.7875 9.66939 19.8692C10.5845 20.9509 11.8529 21.6739 13.25 21.91V24.75C13.25 26.6728 14.0138 28.5169 15.3735 29.8765C16.7331 31.2362 18.5772 32 20.5 32C22.4228 32 24.2669 31.2362 25.6265 29.8765C26.9862 28.5169 27.75 26.6728 27.75 24.75V23.75C27.7499 23.6807 27.7356 23.6121 27.7081 23.5485C27.6806 23.4849 27.6404 23.4276 27.59 23.38C27.5397 23.3311 27.4803 23.2927 27.415 23.2669C27.3498 23.2412 27.2801 23.2286 27.21 23.23Z" fill="#33333D"/>
<path d="M26.75 12.25C25.7611 12.25 24.7944 12.5432 23.9722 13.0927C23.1499 13.6421 22.509 14.423 22.1306 15.3366C21.7522 16.2502 21.6531 17.2555 21.8461 18.2255C22.039 19.1954 22.5152 20.0863 23.2145 20.7855C23.9137 21.4848 24.8046 21.961 25.7746 22.1539C26.7445 22.3469 27.7498 22.2478 28.6634 21.8694C29.5771 21.491 30.3579 20.8501 30.9074 20.0279C31.4568 19.2056 31.75 18.2389 31.75 17.25C31.75 15.9239 31.2232 14.6521 30.2855 13.7145C29.3479 12.7768 28.0761 12.25 26.75 12.25ZM26.75 20.25C26.1567 20.25 25.5766 20.0741 25.0833 19.7444C24.5899 19.4148 24.2054 18.9462 23.9784 18.3981C23.7513 17.8499 23.6919 17.2467 23.8076 16.6647C23.9234 16.0828 24.2091 15.5482 24.6287 15.1287C25.0482 14.7091 25.5828 14.4234 26.1647 14.3076C26.7467 14.1919 27.3499 14.2513 27.8981 14.4784C28.4462 14.7054 28.9148 15.0899 29.2444 15.5833C29.5741 16.0766 29.75 16.6567 29.75 17.25C29.75 18.0456 29.4339 18.8087 28.8713 19.3713C28.3087 19.9339 27.5457 20.25 26.75 20.25Z" fill="#33333D"/>
<path d="M26.75 18.75C27.5784 18.75 28.25 18.0784 28.25 17.25C28.25 16.4216 27.5784 15.75 26.75 15.75C25.9216 15.75 25.25 16.4216 25.25 17.25C25.25 18.0784 25.9216 18.75 26.75 18.75Z" fill="#33333D"/>
</g>
<defs>
<clipPath id="clip0_3006_5169">
<rect width="24" height="24" fill="white" transform="translate(8 8)"/>
</clipPath>
</defs>
</svg>
